# xmcd
#
# Track frame offsets:
#	150
#	26590
#	46747
#	66815
#	88940
#	114450
#	135427
#	153817
#	168900
#	189930
#
# Disc length: 2826 seconds
#
# Revision: 1
# Processed by: cddbd v1.5.2PL0 Copyright (c) Steve Scherf et al.
# Submitted via: EZCDAudioConverter 8.0.2.1
#
DISCID=730b080a
DTITLE=Gia Huy - Anh Vẫn Biết
DYEAR=1997
DGENRE=World Pop
TTITLE0=Anh Vẫn Biết
TTITLE1=Nỗi nhớ dịu êm
TTITLE2=Nguyệt ca
TTITLE3=Phượng hồng
TTITLE4=Tình phụ
TTITLE5=Lối xưa mòn mỏi
TTITLE6=Khi người yêu ra đi
TTITLE7=Lửa tình
TTITLE8=Rong rêu
TTITLE9=Nếu một ngày
EXTD=
EXTT0=
EXTT1=
EXTT2=
EXTT3=
EXTT4=
EXTT5=
EXTT6=
EXTT7=
EXTT8=
EXTT9=
PLAYORDER=
